<svg id="Flat" height="512" viewBox="0 0 512 512" width="512" xmlns="http://www.w3.org/2000/svg"><path d="m336 24 96.489 62.028a40 40 0 0 1 18 28.243l19.843 145.511a24.859 24.859 0 0 1 -7.053 20.937 24.859 24.859 0 0 1 -17.579 7.281h-61.7v200h-256v-200h-61.7a24.859 24.859 0 0 1 -17.578-7.281 24.859 24.859 0 0 1 -7.053-20.937l19.84-145.511a40 40 0 0 1 18-28.243l96.491-62.028 80 32z" fill="#0093b9"/><g fill="#067a98"><path d="m336 24s-40 8-80 8-80-8-80-8l16 32s24 8 64 8 64-8 64-8z"/><path d="m128 448h256v16h-256z"/><path d="m144 176a8 8 0 0 0 -10.119 5.06l-4.337 13.01-8-36a8 8 0 0 0 -9.544-6.07 8 8 0 0 0 -6.074 9.545l14.074 63.333v55.122a8 8 0 0 0 8 8 8 8 0 0 0 8-8v-54.7l13.06-39.179a8 8 0 0 0 -5.06-10.121z"/><path d="m390.455 158.074-8 36-4.337-13.01a8 8 0 0 0 -10.118-5.064 8 8 0 0 0 -5.06 10.119l13.06 39.181v54.7a8 8 0 0 0 8 8 8 8 0 0 0 8-8v-55.122l14.074-63.333a8 8 0 0 0 -6.074-9.545 8 8 0 0 0 -9.545 6.074z"/></g></svg>