<svg enable-background="new 0 0 24 24" height="512" viewBox="0 0 24 24" width="512" xmlns="http://www.w3.org/2000/svg"><path d="m21.703 18.469c.02-.155.047-.309.047-.469 0-.161-.028-.314-.047-.469l.901-.682c.201-.152.257-.43.131-.649l-.809-1.4c-.126-.218-.395-.309-.627-.211l-1.037.437c-.253-.193-.522-.363-.819-.487l-.138-1.101c-.032-.25-.244-.438-.496-.438h-1.617c-.252 0-.465.188-.496.438l-.138 1.101c-.297.124-.567.295-.819.487l-1.037-.437c-.232-.098-.501-.008-.627.211l-.809 1.4c-.126.218-.07.496.131.649l.901.682c-.02.155-.047.309-.047.469 0 .161.028.314.047.469l-.901.682c-.201.152-.257.43-.131.649l.809 1.401c.126.218.395.309.627.211l1.037-.438c.253.193.522.363.819.487l.138 1.101c.031.25.243.438.495.438h1.617c.252 0 .465-.188.496-.438l.138-1.101c.297-.124.567-.295.819-.487l1.037.437c.232.098.501.008.627-.211l.809-1.401c.126-.218.07-.496-.131-.649z" fill="#4caf50"/><circle cx="18" cy="18" fill="#fff" r="2"/><path d="m9 0c-2.757 0-5 2.243-5 5s2.243 5 5 5 5-2.243 5-5-2.243-5-5-5z" fill="#607d8b"/><path d="m11.534 20.8c-.521-.902-.417-2.013.203-2.8-.62-.787-.724-1.897-.203-2.8l.809-1.4c.445-.771 1.275-1.25 2.166-1.25.122 0 .242.009.361.026l.116-.237c-.54-.213-1.123-.339-1.736-.339h-8.5c-2.619 0-4.75 2.131-4.75 4.75v3.5c0 .414.336.75.75.75h10.899z" fill="#607d8b"/><path d="m9 0c-2.757 0-5 2.243-5 5s2.243 5 5 5z" fill="#546d79"/><path d="m9 12h-4.25c-2.619 0-4.75 2.131-4.75 4.75v3.5c0 .414.336.75.75.75h8.25z" fill="#546d79"/><path d="m18 13h-.809c-.252 0-.465.188-.496.438l-.138 1.101c-.297.124-.566.295-.819.487l-1.037-.437c-.063-.027-.129-.039-.194-.039-.174 0-.341.091-.433.25l-.809 1.4c-.126.218-.07.497.131.649l.9.682c-.02.155-.047.309-.047.469s.027.314.047.469l-.9.682c-.201.152-.257.431-.131.649l.809 1.4c.092.159.259.25.433.25.065 0 .131-.013.194-.039l1.037-.438c.253.192.522.363.819.487l.138 1.101c.032.251.244.439.496.439h.809v-3c-1.105 0-2-.896-2-2 0-1.105.896-2 2-2z" fill="#429846"/><path d="m18 16c-1.105 0-2 .896-2 2s.896 2 2 2z" fill="#dedede"/></svg>