<svg id="Layer_1" enable-background="new 0 0 512 512" height="512" viewBox="0 0 512 512" width="512" xmlns="http://www.w3.org/2000/svg"><g><g><path d="m453.19 512h-394.38c-32.428 0-58.81-26.382-58.81-58.811v-334.128c0-32.429 26.382-58.811 58.81-58.811h394.38c32.428 0 58.81 26.382 58.81 58.811v334.129c0 32.428-26.382 58.81-58.81 58.81z" fill="#f2f6fc"/></g><path d="m453.19 60.25h-197.19v451.75h197.19c32.428 0 58.81-26.382 58.81-58.811v-334.128c0-32.429-26.382-58.811-58.81-58.811z" fill="#e9edf5"/><g><g><path d="m215.919 196.234-12.248-57.615c-1.722-8.104 3.45-16.068 11.553-17.791 8.103-1.726 73.448-1.722 81.551 0 8.103 1.723 13.275 9.688 11.553 17.791l-12.248 57.615-40.08 238.887z" fill="#d6475c"/></g></g><path d="m296.081 196.234 12.248-57.615c1.722-8.104-3.45-16.068-11.553-17.791-4.051-.861-22.413-1.292-40.775-1.293v315.585z" fill="#ad3445"/><path d="m215.816 195.75.103.484-35.01 238.336c-.689 4.691.881 9.433 4.234 12.786l60.25 60.25c2.929 2.929 6.768 4.394 10.607 4.394s7.678-1.465 10.606-4.394l60.25-60.25c3.354-3.354 4.923-8.095 4.234-12.786l-35.01-238.336.103-.484z" fill="#fa5d0f"/><path d="m296.081 196.234.103-.484h-40.184v316.25c3.839 0 7.678-1.465 10.606-4.394l60.25-60.25c3.354-3.354 4.923-8.095 4.234-12.786z" fill="#d6475c"/><g><path d="m436.75 271h-80.75c-8.284 0-15-6.716-15-15s6.716-15 15-15h80.75c8.284 0 15 6.716 15 15s-6.716 15-15 15z" fill="#23272b"/></g><path d="m419.345 67.3-37.657-60.25c-2.74-4.386-7.547-7.05-12.719-7.05h-225.938c-5.172 0-9.979 2.664-12.72 7.05l-37.656 60.25c-3.434 5.495-2.952 12.575 1.197 17.553l75.313 90.375c5.229 6.275 14.516 7.214 20.894 2.11l65.941-52.754 65.942 52.754c2.764 2.211 6.073 3.287 9.362 3.287 4.302 0 8.568-1.842 11.532-5.397l75.313-90.375c4.148-4.978 4.63-12.058 1.196-17.553z" fill="#dce1eb"/><path d="m381.688 7.05c-2.74-4.386-7.547-7.05-12.719-7.05h-112.969v124.584l65.942 52.754c2.764 2.211 6.073 3.287 9.362 3.287 4.302 0 8.568-1.842 11.532-5.397l75.313-90.375c4.148-4.978 4.631-12.058 1.197-17.553z" fill="#cdd2e1"/><g><path d="m143.031 0 112.969 124.584 112.969-124.584z" fill="#414952"/></g><path d="m256 124.584 112.969-124.584h-112.969z" fill="#23272b"/></g></svg>