<svg id="Capa_1" enable-background="new 0 0 497 497" height="512" viewBox="0 0 497 497" width="512" xmlns="http://www.w3.org/2000/svg"><g><circle cx="248.5" cy="248.5" fill="#a381e6" r="248.5"/><circle cx="248.5" cy="248.5" fill="#b0d0ff" r="203.5"/><path d="m248.5 75v347c95.821 0 173.5-77.679 173.5-173.5s-77.679-173.5-173.5-173.5z" fill="#e3f5ff"/><path d="m392 248.5c0-95.821-64.247-173.5-143.5-173.5-95.821 0-173.5 77.679-173.5 173.5s77.679 173.5 173.5 173.5c79.253 0 143.5-77.679 143.5-173.5z" fill="#fff"/><path d="m248.5 105c-8.284 0-15 6.716-15 15v126.734h30v-126.734c0-8.284-6.716-15-15-15z" fill="#68799e"/><path d="m347 233.5h-30v30h30c8.28 0 15-6.72 15-15s-6.72-15-15-15z" fill="#506480"/><path d="m332 248.5c0-8.284-6.716-15-15-15h-66.734v30h66.734c8.284 0 15-6.716 15-15z" fill="#68799e"/><path d="m147.078 357.422c-1.919 0-3.839-.732-5.303-2.197-2.929-2.929-2.929-7.678 0-10.606l101.422-101.422c2.929-2.928 7.677-2.929 10.607 0 2.929 2.929 2.929 7.678 0 10.606l-101.423 101.423c-1.464 1.464-3.384 2.196-5.303 2.196z" fill="#506480"/><circle cx="248.5" cy="248.5" fill="#b0d0ff" r="22.5"/></g></svg>