<svg id="Capa_1" enable-background="new 0 0 512 512" height="512" viewBox="0 0 512 512" width="512" xmlns="http://www.w3.org/2000/svg"><g id="XMLID_152_"><g id="XMLID_746_"><path id="XMLID_1042_" d="m28.223 96.753 39.386-17.589 83.209-12.159 41.926-4.005h127.012l41.426 4.005 122.595 29.748c15.381 6.869 25.286 22.139 25.286 38.984v333.567c0 23.58-19.115 42.695-42.695 42.695h-420.736c-23.58 0-42.695-19.115-42.695-42.695v-333.567c0-16.845 9.905-32.115 25.286-38.984z" fill="#464646"/><g id="XMLID_7_"><path id="XMLID_941_" d="m320 63 41.182 4.005 83.088 12.105 39.507 17.643c15.381 6.869 25.286 22.139 25.286 38.984v333.567c0 23.58-19.115 42.695-42.695 42.695h-210.368v-448.999z" fill="#2d2d2d"/></g><g id="XMLID_42_"><path id="XMLID_1393_" d="m256 388.192-110.451-324.859 5.569-21.628 38.68-41.705h131.286l39.342 41.213.456.492 7.236 21.628z" fill="#efefef"/></g><g id="XMLID_1519_"><path id="XMLID_1478_" d="m321.084 0 39.342 41.213 7.692 22.12-112.118 324.859v-.001-388.191z" fill="#e5e5e5"/></g><path id="XMLID_1037_" d="m222.092 87.017 10.279-12.284c4.444-5.31 10.588-8.919 17.39-10.213l1.096-.209c3.402-.647 6.891-.7 10.311-.156 7.147 1.136 13.641 4.819 18.285 10.369l10.454 12.493c9.962 11.905 9.189 29.445-1.78 40.428l-9.942 9.954 29.318 73.418-51.503 152.549-51.504-152.549 29.318-73.418-9.942-9.954c-10.969-10.983-11.742-28.523-1.78-40.428z" fill="#7c83e7"/><g id="XMLID_926_"><path id="XMLID_466_" d="m261.169 64.155c7.147 1.136 13.641 4.819 18.285 10.369l10.454 12.493c9.962 11.905 9.189 29.445-1.78 40.428l-9.942 9.954 29.318 73.418-51.504 152.549v-299.579c1.727-.027 3.457.096 5.169.368z" fill="#5f69e2"/></g><path id="XMLID_1036_" d="m192.744 0c0 34.978 28.321 63.333 63.256 63.333s63.256-28.355 63.256-63.333z" fill="#464646"/><g id="XMLID_326_"><path id="XMLID_938_" d="m319.256 0c0 34.978-28.321 63.333-63.256 63.333v-63.333z" fill="#2d2d2d"/></g></g><g id="XMLID_1266_"><path id="XMLID_1174_" d="m256 349.866 104.882-308.161-.456-.492.756.792 82.59 36.883.245.386-35.649 196.52c-2.556 14.091-13.898 24.93-28.09 26.846l-54.999 7.424 28.876 45.577c6.314 9.966 6.835 22.543 1.367 32.997l-64.53 123.362h-34.992z" fill="#5a5a5a"/><path id="XMLID_939_" d="m67.983 79.273.297-.409 82.538-36.859.3-.3 104.882 308.161v162.134h-34.992l-64.53-123.363c-5.468-10.454-4.948-23.031 1.367-32.997l28.876-45.577-54.999-7.424c-14.192-1.916-25.534-12.755-28.09-26.846z" fill="#6e6e6e"/></g></g></svg>