<svg height="512" viewBox="0 0 52 59" width="512" xmlns="http://www.w3.org/2000/svg"><g id="012---Polo-Shirt" fill="none" transform="translate(0 -1)"><path id="Shape" d="m52 33.44c-2.4971246 1.159474-5.2943011 1.5091211-8 1-.1749786-1.1757857-.4767368-2.3291724-.9-3.44-.49-1.15-1.19-1.84-2.1-.5-1.81 2.67.51 22.79.91 25.77.0534646.4668674-.2253507.9079782-.67 1.06-6.75 2.25-23.72 2.25-30.48 0-.4446493-.1520218-.7234646-.5931326-.67-1.06.4-2.95 2.72-23.1.91-25.77-.91-1.34-1.61-.65-2.1.5-.42256841 1.1076112-.72431695 2.2576084-.9 3.43-2.70569895.5091211-5.50287545.159474-8-1 0-8.95.83-22 9-25.56 3.0206502-1.20883286 5.8500807-2.84922889 8.4-4.87.6-.61 4.42-2 8.6-2 2.8510375-.03477489 5.6746932.55931954 8.27 1.74 2.6320767 2.14674627 5.5758506 3.87996481 8.73 5.14 8.18 3.57 9 16.61 9 25.56z" fill="#7ed09e"/><path id="Shape" d="m41.91 56.26c.0534646.4668674-.2253507.9079782-.67 1.06-6.75 2.25-23.72 2.25-30.48 0-.4446493-.1520218-.7234646-.5931326-.67-1.06.09-.67.21-1.73.36-3 6.5 2.4 24.59 2.4 31.1 0 .15 1.27.27 2.33.36 3z" fill="#df4d60"/><path id="Shape" d="m8.9 31c-.42256841 1.1076112-.72431695 2.2576084-.9 3.43-2.70569895.5091211-5.50287545.159474-8-1 0-1.1 0-2.55.06-4.19 2.87759406.8918942 5.84023421 1.4817411 8.84 1.76z" fill="#ff5364"/><path id="Shape" d="m51.94 29.25c-2.8779578.8885039-5.840591 1.4749981-8.84 1.75-.49-1.15-1.19-1.84-2.1-.5-1.49 2.2-.2 15.92.55 22.72-1.33.48-5.8 1.78-15.55 1.78v-40l4.66 2.06c.9140456.4034495 1.9856132.0704524 2.51-.78 2.2707698-3.77788 3.0950208-8.25086236 2.32-12.59 2.3288203 1.68875305 4.8497721 3.09524945 7.51 4.19 7.32 3.2 8.69 14.2 8.94 21.37z" fill="#71c285"/><path id="Shape" d="m52 33.44c-2.4971246 1.159474-5.2943011 1.5091211-8 1-.1749786-1.1757857-.4767368-2.3291724-.9-3.44 2.9990524-.2717446 5.9616787-.854886 8.84-1.74.06 1.63.06 3.08.06 4.18z" fill="#df4d60"/><path id="Shape" d="m33.17 16.28c-.5243868.8504524-1.5959544 1.1834495-2.51.78l-4.66-2.06c3.8070801-2.6819309 6.319645-6.83328264 6.93-11.45.0415655-.30061613.2173949-.56609206.477966-.72165693.2605712-.15556486.5776876-.18438493.862034-.07834307.3.11.38.3 1.22.94.7750208 4.33913764-.0492302 8.81212-2.32 12.59z" fill="#df4d60"/><path id="Shape" d="m26 15-4.66 2.06c-.9140456.4034495-1.9856132.0704524-2.51-.78-2.2707698-3.77788-3.0950208-8.25086236-2.32-12.59.34-.26.63-.51.89-.74.2738899-.25334205.6660358-.33314543 1.017154-.20699519.3511181.12615024.6028115.43727313.652846.80699519.610355 4.61671736 3.1229199 8.7680691 6.93 11.45z" fill="#ff5364"/><path id="Shape" d="m34.27 2.74c-.2843464-.10604186-.6014628-.07722179-.862034.07834307-.2605711.15556487-.4364005.4210408-.477966.72165693-.607701 4.62034588-3.1205487 8.7757911-6.93 11.46-3.8070801-2.6819309-6.319645-6.83328264-6.93-11.45-.0427032-.30392197-.222601-.57140341-.4879838-.72555957-.2653827-.15415615-.5868562-.17791247-.8720162-.06444043 2.5963472-1.20102991 5.4296362-1.80254845 8.29-1.76 2.8510375-.03477489 5.6746932.55931954 8.27 1.74z" fill="#33907c"/><path id="Shape" d="m34.33 2.77h-.06z" fill="#d75e72"/><path id="Shape" d="m22 22v6.38c.0026457.3801569-.2104962.7289345-.55.9l-.32.15c-1.9704218.9850161-4.2895782.9850161-6.26 0l-.32-.15c-.3395038-.1710655-.5526457-.5198431-.55-.9v-6.38c0-.5522847.4477153-1 1-1h6c.5522847 0 1 .4477153 1 1z" fill="#ff5364"/></g></svg>