<?xml version="1.0" encoding="iso-8859-1"?>
<!-- Generator: Adobe Illustrator 19.0.0, SVG Export Plug-In . SVG Version: 6.00 Build 0)  -->
<svg version="1.1" id="Layer_1" xmlns="http://www.w3.org/2000/svg" xmlns:xlink="http://www.w3.org/1999/xlink" x="0px" y="0px"
	 viewBox="0 0 512 512" style="enable-background:new 0 0 512 512;" xml:space="preserve">
<path style="fill:#E0E4EC;" d="M497,301.594H15l-15,30v15c0,24.814,20.186,45,45,45h422c24.814,0,45-20.186,45-45v-15L497,301.594z"
	/>
<path style="fill:#D1D7E3;" d="M256,301.594v90h211c24.814,0,45-20.186,45-45v-15l-15-30H256z"/>
<path style="fill:#3D85CC;" d="M445.855,231.337c-0.104-0.016-0.205-0.046-0.309-0.062l-30.123,26.768L376,301.594l19.6,30H512
	v-25.811C512,269.093,484.105,237.375,445.855,231.337z"/>
<path style="fill:#4DA6FF;" d="M415.423,228.043l-56.144-2.911l-33.474,28.266l-31.469,48.197l4.459,30c40.43,0,76.718,0,96.804,0
	c23.216-27.742,41.365-69.128,49.946-100.32C430.844,228.877,444.855,229.57,415.423,228.043z"/>
<g>
	<path style="fill:#4596E6;" d="M236.232,165.66l-20.305,7.432l-41.096-0.69c-2.571,1.421-5.464,2.093-8.377,1.355L91,154.89
		v-18.296c0-8.291-6.709-15-15-15H45c-24.853,0-45,20.147-45,45V211.6l30,59.995l90.995,60c6.445,0,14.293,0,22.896,0l64.303-30
		l49.233-82.377L236.232,165.66z"/>
	<path style="fill:#4596E6;" d="M286.337,221.35l-12.371,16.251l-39.822,63.994l4.391,30c8.575,0,49.005,0,60.26,0l60.483-106.463
		L286.337,221.35z"/>
</g>
<path style="fill:#4DA6FF;" d="M286.337,221.35c-29.556-32.85-10.749-11.947-50.105-55.69L143.89,331.594c39.98,0,49.869,0,94.645,0
	l61.675-109.525L286.337,221.35z"/>
<g>
	<path style="fill:#3D85CC;" d="M384.895,214.575c-40.952-15.727-79.074-39.377-113.546-66.923l-22.601-18.06
		c-12.612-10.122-29.531-11.997-44.106-5.039c-8.397,4.039-14.658,10.681-18.715,18.539c-2.994,5.797-4.927,12.184-4.927,19.048
		v0.264c0,3.618-1.641,6.973-4.497,9.214c-0.502,0.39-1.126,0.483-1.672,0.784l95.173,74.084
		c16.45,9.873,35.259,14.897,54.126,14.897c13.198,0,26.426-2.461,38.892-7.441l71.455-24.911
		C417.526,225.631,400.99,220.755,384.895,214.575z"/>
	<path style="fill:#3D85CC;" d="M121,331.594H0v-120h15c57.99,0,106,47.01,106,105V331.594z"/>
</g>
<g>
</g>
<g>
</g>
<g>
</g>
<g>
</g>
<g>
</g>
<g>
</g>
<g>
</g>
<g>
</g>
<g>
</g>
<g>
</g>
<g>
</g>
<g>
</g>
<g>
</g>
<g>
</g>
<g>
</g>
</svg>
