<svg id="Capa_1" enable-background="new 0 0 512 512" height="512" viewBox="0 0 512 512" width="512" xmlns="http://www.w3.org/2000/svg"><g><g><path clip-rule="evenodd" d="m24.999 421.064 22.34 9.287 22.369-9.287v-49.558c0-31.861 10.338-60.859 20.442-95.115 4.906-42.841-45.673-116.784-87.636-94.91 12.585 72.774 20.499 162.72 22.485 239.583z" fill="#7e707d" fill-rule="evenodd"/></g><g><path clip-rule="evenodd" d="m199.045 255.803c-37.73-67.372-51.922-162.019-137.251-202.232-22.427-12.149-26.107 5.432-26.107 5.432 21.756 77.564 75.693 170.897 120.46 247.264 63.895 97.305 123.147 95.378 202.051 58.932 10.133-4.702 17.229-9.345 23.304-24.472-6.162-1.519-12.557-.788-21.902-.175-79.722 5.285-116.108-5.345-160.555-84.749z" fill="#7e707d" fill-rule="evenodd"/></g><g><path clip-rule="evenodd" d="m10.836 196.053c21.551 22.574 48.972 46.141 79.314 80.338 31.013 34.956 65.063 80.98 99.055 148.381 18.69 37.03 15.36 37.935 77.532 37.935l200.913-.029c19.186 0 31.451-.438 38.08-1.986 8.907-2.103 7.797-6.22 0-14.105-4.789-4.877-12.177-11.185-21.318-19.303l-86.556-76.892c-6.337-5.636-11.272-8.41-16.353-9.666-102.763 53.179-139.412 57.151-211.542-52.653l-61.531-104.986-14.776-25.232-57.967-98.852c-9.958 26.487-33.962 65.444-35.422 93.304-.292 5.665-.409 11.331 0 16.733.35 4.322 1.022 8.498 2.249 12.441 1.635 5.403 4.263 10.309 8.322 14.572z" fill="#fe8d94" fill-rule="evenodd"/></g><g><path clip-rule="evenodd" d="m30.46 462.679h34.284c2.745 0 4.964-2.249 4.964-4.994v-36.621h-44.709c.321 12.616.467 24.881.467 36.621 0 2.745 2.249 4.994 4.994 4.994z" fill="#fe8d94" fill-rule="evenodd"/></g><g><path clip-rule="evenodd" d="m348.854 356.875 79.255 70.409c9.17 8.148 16.529 14.426 21.318 19.303 7.797 7.885 8.907 12.003 0 14.105-6.571 1.548-18.66 1.986-37.554 1.986h.292 55.485c19.186 0 31.451-.438 38.08-1.986 8.907-2.103 7.797-6.22 0-14.105-4.789-4.877-12.177-11.185-21.318-19.303l-86.556-76.892c-6.337-5.636-11.272-8.41-16.353-9.666-11.682 6.045-22.516 11.477-32.649 16.149z" fill="#ff6d75" fill-rule="evenodd"/></g><g><path clip-rule="evenodd" d="m9.376 226.162c17.375 16.821 37.175 35.57 58.405 59.516-10.104 34.226-20.442 63.254-20.442 95.086v40.3h22.369v-49.558c0-31.861 10.338-60.859 20.442-95.115-30.341-34.197-57.762-57.764-79.314-80.338-4.059-4.264-6.687-9.17-8.323-14.572 2.453 14.31 4.76 29.291 6.863 44.681z" fill="#6a5c6b" fill-rule="evenodd"/></g><g><path clip-rule="evenodd" d="m47.339 430.351v32.328h17.405c2.745 0 4.964-2.249 4.964-4.994v-36.621h-22.369z" fill="#ff6d75" fill-rule="evenodd"/></g></g></svg>