<?xml version="1.0" encoding="iso-8859-1"?>
<!-- Generator: Adobe Illustrator 19.0.0, SVG Export Plug-In . SVG Version: 6.00 Build 0)  -->
<svg version="1.1" id="Layer_1" xmlns="http://www.w3.org/2000/svg" xmlns:xlink="http://www.w3.org/1999/xlink" x="0px" y="0px"
	 viewBox="0 0 503.635 503.635" style="enable-background:new 0 0 503.635 503.635;" xml:space="preserve">
<g transform="translate(-1)">
	<path style="fill:#FAC176;" d="M9.696,165.02c-9.58,21.799-16.479,88.368,8.678,121.457v34.747c0,0,19.699,17.391,52.068,17.391
		c52.432,0,128.364-8.93,164.881-8.713c36.803,0.217,121.066,23.344,201.225-6.673c0,0,44.475-10.492,57.856-17.72
		c13.373-7.229,24.22-48.814-39.415-65.805c-63.636-17-106.852-39.971-106.852-39.971l-17.356,34.712
		C330.781,234.444,60.679,193.944,9.696,165.02"/>
	<path style="fill:#D69F5F;" d="M18.374,321.224c0,0,19.699,17.391,52.068,17.391c52.432,0,128.364-8.93,164.881-8.713
		c36.803,0.217,121.066,23.344,201.225-6.673c0,0,44.475-10.492,57.856-17.72c8.053-4.356,15.065-21.157,5.58-37.55
		c-3.358,1.684-5.372,2.69-5.58,2.803c-13.381,7.237-57.856,17.72-57.856,17.72c-80.158,30.026-164.421,6.899-201.225,6.673
		c-36.517-0.217-112.449,8.713-164.881,8.713c-32.369,0-52.068-17.391-52.068-17.391V321.224z"/>
</g>
<g>
</g>
<g>
</g>
<g>
</g>
<g>
</g>
<g>
</g>
<g>
</g>
<g>
</g>
<g>
</g>
<g>
</g>
<g>
</g>
<g>
</g>
<g>
</g>
<g>
</g>
<g>
</g>
<g>
</g>
</svg>
