<svg id="Capa_1" enable-background="new 0 0 510.533 510.533" height="512" viewBox="0 0 510.533 510.533" width="512" xmlns="http://www.w3.org/2000/svg"><g><g><g><path d="m266.229 172.717-2.96-6.26c-1.46-3.07-5.25-4.23-8.17-2.49l-39.56 23.53-45.75 27.21-25.38 15.1-124.09 15c-5.46.66-9.9 4.28-11.81 9.13l8.93 19.655 224.77 5.89 26.16-46.294.65-3.38 2.35-10.34c3.57-15.721 1.76-32.181-5.14-46.751z" fill="#bc7c63"/></g><path d="m249.538 199.082 21.513-12.796c-1.146-4.645-2.75-9.193-4.822-13.569l-2.96-6.26c-1.46-3.07-5.25-4.23-8.17-2.49l-39.56 23.53-45.75 27.21-25.38 15.1-124.09 15c-5.46.66-9.9 4.28-11.81 9.13l8.93 19.655 22.604.592-2.574-5.665c1.91-4.85 6.35-8.47 11.81-9.13l112.209-13.564c2.817-.341 5.468 1.403 6.272 4.124l2.063 6.985 7.264 20.841 65.12 1.706 24.466-43.295-3.087-5.224-16.118-21.335c-2.588-3.429-1.623-8.348 2.07-10.545z" fill="#aa6a51"/><path d="m255.266 236.538-30.74-40.692c-6.435-8.518-18.234-10.858-27.432-5.439l-16.952 9.986c-8.307 4.893-12.218 14.812-9.487 24.058l8.691 29.421 13.679 39.246 76.769-31.987z" fill="#bc7c63"/><g><g id="XMLID_206_"><g><path d="m478.863 276.652-249.912 21.931-210.13-24.991-11.321 9.825v27.2c0 3.94 1.94 7.63 5.18 9.88l8.67 6c19.65 13.59 42.97 20.88 66.86 20.88h394.94c10.98 0 19.88-8.91 19.88-19.89v-13.6z" fill="#918291"/><path d="m503.029 263.297v50.59h-409.17c-19.35 0-38.4-4.78-55.46-13.92l-30.9-16.55v-24.14c0-1.88.36-3.68 1.01-5.34l2.82.11h161.94c8.95 0 17.87-1.12 26.55-3.34l284.97-72.83c.38-.1.76-.14 1.15-.14 1.53 0 2.99.76 3.86 2.09 8.64 13.19 13.23 28.61 13.23 44.37z" fill="#c68d7a"/><g><path d="m76.03 302.836-9.62-5.798c-13.102-7.897-21.28-23.266-21.28-39.991 0-1.024.088-2.025.249-2.999h-34.05l-2.82-.11c-.65 1.66-1.01 3.46-1.01 5.34v24.14l30.9 16.55c17.06 9.14 36.11 13.92 55.46 13.92h6.921c-8.562-2.611-16.87-6.301-24.75-11.052z" fill="#bc7c63"/></g></g></g></g></g><path d="m510.533 224.202c0-17.268-4.998-34.033-14.454-48.485-2.84-4.339-8.123-6.392-13.15-5.108l-20.658 5.28c-4.013 1.026-6.435 5.111-5.409 9.124 1.026 4.014 5.113 6.432 9.124 5.409l18.64-4.765c6.119 9.94 9.75 21.113 10.668 32.698l-128.909 31.134c-4.026.973-6.502 5.025-5.529 9.051.829 3.435 3.899 5.741 7.284 5.741.583 0 1.175-.069 1.767-.211l125.628-30.341-.001 72.656h-13.355c-4.143 0-7.5 3.358-7.5 7.5s3.357 7.5 7.5 7.5h13.355v6.104c0 6.829-5.556 12.385-12.384 12.385h-43.209v-18.489h10.274c4.143 0 7.5-3.358 7.5-7.5s-3.357-7.5-7.5-7.5h-356.351c-18.055 0-36.01-4.505-51.926-13.029l-26.938-14.426v-17.381h158.269c9.573 0 19.131-1.202 28.408-3.573l17.203-4.397c20.893 16.888 46.926 25.903 73.388 25.903 9.089 0 18.232-1.064 27.229-3.237l19.241-4.647c4.026-.973 6.502-5.025 5.529-9.051-.973-4.027-5.022-6.5-9.051-5.53l-19.241 4.647c-26.828 6.478-55.093 1.623-78.125-12.933l197.158-50.392c4.013-1.026 6.435-5.111 5.409-9.124-1.025-4.012-5.106-6.435-9.124-5.409l-153.016 39.109.407-1.789c3.926-17.277 1.911-35.61-5.673-51.621l-2.963-6.254c-1.597-3.372-4.56-5.929-8.128-7.017-3.565-1.088-7.452-.618-10.659 1.289l-38.528 22.917c-6.488-1.15-13.38-.068-19.444 3.504l-16.952 9.986c-6.146 3.62-10.496 9.253-12.603 15.655l-21.795 12.964-122.522 14.817c-11.069 1.339-19.417 10.756-19.417 21.906v51.341c0 6.405 3.145 12.404 8.41 16.047l8.676 6.003c20.996 14.53 45.59 22.21 71.124 22.21h394.938c15.1 0 27.384-12.285 27.384-27.385zm-85.594 115.672h-27.878v-18.489h27.878zm-343.023-.197c-9.314-.527-18.445-2.213-27.224-5.022v-19.593c8.827 2.909 17.968 4.844 27.224 5.739zm15-18.292h27.878v18.489h-27.878zm42.878 0h27.878v18.489h-27.878zm42.878 0h27.878v18.489h-27.878zm42.878 0h27.878v18.489h-27.878zm42.878 0h27.878v18.489h-27.878zm42.878 0h27.878v18.489h-27.878zm42.878 0h27.878v18.489h-27.878zm-96.882-150.003 2.152 4.544c6.152 12.988 7.787 27.86 4.603 41.875l-2.111 9.288-3.702.946-27.733-36.711c-.712-.942-1.476-1.822-2.278-2.652zm-73.353 35.472 16.952-9.986c5.916-3.484 13.501-1.983 17.641 3.498l23.945 31.697-44.525 11.38c-4.327 1.106-8.726 1.909-13.159 2.426l-6.954-23.544c-1.76-5.956.749-12.319 6.1-15.471zm-38.637 30.396c1.037-.125 2.036-.466 2.934-1l15.375-9.145 5.744 19.444h-100.944zm-128.368 77.075c-1.218-.842-1.944-2.23-1.944-3.711v-14.668l19.856 10.634c1.593.853 3.209 1.657 4.836 2.439v19.584c-4.856-2.393-9.559-5.15-14.071-8.272z"/></g></svg>