<?xml version="1.0" encoding="iso-8859-1"?>
<!-- Generator: Adobe Illustrator 21.0.0, SVG Export Plug-In . SVG Version: 6.00 Build 0)  -->
<svg version="1.1" id="Capa_1" xmlns="http://www.w3.org/2000/svg" xmlns:xlink="http://www.w3.org/1999/xlink" x="0px" y="0px"
	 viewBox="0 0 512 512" style="enable-background:new 0 0 512 512;" xml:space="preserve">
<g>
	<path style="fill:#3A484A;" d="M56.554,367.859h-31.48c-3.439,0-6.227-2.788-6.227-6.227v-34.593c0-3.439,2.788-6.227,6.227-6.227
		h31.48c3.439,0,6.227,2.788,6.227,6.227v34.593C62.781,365.071,59.993,367.859,56.554,367.859z"/>
	<path style="fill:#3A484A;" d="M122.628,367.859h-31.48c-3.439,0-6.227-2.788-6.227-6.227v-34.593c0-3.439,2.788-6.227,6.227-6.227
		h31.48c3.439,0,6.227,2.788,6.227,6.227v34.593C128.854,365.071,126.067,367.859,122.628,367.859z"/>
	<path style="fill:#3A484A;" d="M336.068,367.859h-31.48c-3.439,0-6.227-2.788-6.227-6.227v-34.593c0-3.439,2.788-6.227,6.227-6.227
		h31.48c3.439,0,6.227,2.788,6.227,6.227v34.593C342.295,365.071,339.507,367.859,336.068,367.859z"/>
	<path style="fill:#3A484A;" d="M402.141,367.859h-31.48c-3.439,0-6.227-2.788-6.227-6.227v-34.593c0-3.439,2.788-6.227,6.227-6.227
		h31.48c3.439,0,6.227,2.788,6.227,6.227v34.593C408.368,365.071,405.58,367.859,402.141,367.859z"/>
	<path style="fill:#3A484A;" d="M468.215,367.859h-31.48c-3.439,0-6.227-2.788-6.227-6.227v-34.593c0-3.439,2.788-6.227,6.227-6.227
		h31.48c3.439,0,6.227,2.788,6.227,6.227v34.593C474.441,365.071,471.654,367.859,468.215,367.859z"/>
</g>
<path style="fill:#2FC8B4;" d="M220.655,147.563l-98.582,70.777c-14.368,10.316-34.541,5.526-42.739-10.147l-11.281-21.567
	c-7.583-14.498-22.591-23.584-38.952-23.584H23.36c-3.847,0-7.062,2.928-7.421,6.758L0.161,316.613
	c-0.561,5.221,0.351,10.496,2.634,15.225l3.948,8.179c1.479,3.063,4.58,5.01,7.982,5.01h118.683c12.339,0,24.42-3.533,34.816-10.18
	l0,0c7.62-4.873,16.475-7.462,25.52-7.462h52.182c9.045,0,17.9,2.589,25.52,7.462l0,0c10.395,6.648,22.477,10.18,34.816,10.18
	h99.703c13.54,0,27.024-1.729,40.125-5.144l31.589-8.235c16.661-4.343,29.614-17.448,33.764-34.158l0,0
	c2.129-8.575-1.99-17.477-9.905-21.403L239.389,146.04C233.344,143.041,226.137,143.627,220.655,147.563z"/>
<path style="fill:#00AE95;" d="M37.649,340.017l-3.948-8.179c-2.283-4.729-3.195-10.004-2.634-15.225l15.778-146.814
	c0.089-0.949,0.354-1.842,0.76-2.649c-5.701-2.648-11.99-4.109-18.503-4.109h-5.741c-3.847,0-7.062,2.928-7.421,6.758L0.161,316.613
	c-0.561,5.221,0.351,10.496,2.634,15.225l3.948,8.179c1.479,3.063,4.58,5.01,7.982,5.01H45.63
	C42.229,345.027,39.127,343.081,37.649,340.017z"/>
<path style="fill:#FF8C4F;" d="M271.446,334.847c10.395,6.648,22.477,10.18,34.816,10.18h99.703c13.54,0,27.024-1.729,40.125-5.144
	l31.589-8.235c9.434-2.459,17.675-7.732,23.807-14.873C407.351,343.549,6.839,254.484,3.685,283.823l-3.524,32.79
	c-0.561,5.221,0.351,10.496,2.634,15.225l3.948,8.179c1.479,3.063,4.58,5.01,7.982,5.01h118.683c12.339,0,24.42-3.533,34.816-10.18
	l0,0c7.62-4.873,16.475-7.462,25.52-7.462h52.182C254.971,327.385,263.826,329.974,271.446,334.847z"/>
<path style="fill:#EE6B28;" d="M37.649,340.017l-3.948-8.179c-2.283-4.729-3.195-10.004-2.634-15.225l3.524-32.79
	c0.303-2.816,4.278-4.538,11.28-5.379c-25.751-1.568-41.568-0.359-42.185,5.379l-3.524,32.79
	c-0.561,5.221,0.351,10.496,2.634,15.225l3.948,8.179c1.479,3.063,4.58,5.01,7.982,5.01H45.63
	C42.229,345.027,39.127,343.081,37.649,340.017z"/>
<g>
	<path style="fill:#3A484A;" d="M233.586,211.841c-1.878,0-3.759-0.701-5.215-2.111c-2.976-2.881-3.053-7.629-0.172-10.605
		l47.216-48.776c2.881-2.976,7.628-3.054,10.605-0.172c2.976,2.881,3.053,7.629,0.172,10.605l-47.216,48.776
		C237.505,211.077,235.547,211.841,233.586,211.841z"/>
	<path style="fill:#3A484A;" d="M285.943,218.334c-1.878,0-3.759-0.701-5.215-2.111c-2.976-2.881-3.053-7.629-0.172-10.605
		l34.384-35.521c2.881-2.976,7.628-3.054,10.605-0.172c2.976,2.881,3.053,7.629,0.172,10.605l-34.384,35.521
		C289.861,217.57,287.903,218.334,285.943,218.334z"/>
	<path style="fill:#3A484A;" d="M331.815,231.526c-1.878,0-3.759-0.701-5.215-2.111c-2.976-2.881-3.053-7.629-0.172-10.605
		l28.037-28.964c2.88-2.976,7.628-3.054,10.605-0.172c2.976,2.881,3.053,7.629,0.172,10.605l-28.037,28.964
		C335.734,230.763,333.775,231.526,331.815,231.526z"/>
</g>
<g>
</g>
<g>
</g>
<g>
</g>
<g>
</g>
<g>
</g>
<g>
</g>
<g>
</g>
<g>
</g>
<g>
</g>
<g>
</g>
<g>
</g>
<g>
</g>
<g>
</g>
<g>
</g>
<g>
</g>
</svg>
