<svg id="Capa_1" enable-background="new 0 0 497.116 497.116" height="512" viewBox="0 0 497.116 497.116" width="512" xmlns="http://www.w3.org/2000/svg"><g><path d="m457.317 176.706 21.859 13.444c7.715 4.745 12.414 13.153 12.414 22.21v12.789 42.316l-88.377 72.472h-166.024l59.975-175.878 82.547 22.756 64.49-19.532z" fill="#b3ceec"/><g id="XMLID_132_"><g><path d="m446.167 161.956 11.15 14.75-14.25 9.7c-27.93 19.03-64.2 20.7-93.76 4.33l-7.09-3.92-4.22-2.33c-17.66-9.78-37.81-14.14-57.94-12.53l-34.54 2.76 73.35-31.12 18.41 10.68 23.68 11.76c22.09 10.97 48.38 9.21 68.82-4.6l2.62-1.77c4.47-3.02 10.52-2.02 13.77 2.29z" fill="#e5e1e5"/></g></g><path d="m487.699 316.953 3.365-6.095c3.97-7.192 6.053-15.273 6.053-23.487v-52.357c0-7.236-6.568-12.695-13.682-11.373l-49.412 9.182c-48.999 9.105-86.295 49.161-91.885 98.684l-3.008 21.922 135.32-2.779z" fill="#5f99d7"/><path d="m299.89 219.322 42.327-32.506c1.08-11.24-.7-22.41-4.94-32.54h-.01c-3.93-9.4-9.99-17.92-17.89-24.81-.81-.71-1.84-1.07-2.87-1.07-.83 0-1.68.24-2.41.73l-68.583 45.587.003.003 28.786 30.439-97.856 15.471v-.003l-35.9 23.863c-1.33.88-2.78 1.57-4.31 2.06l-113.41 35.86 11.486 57.53h96.824 131.02 37.733z" fill="#5f99d7"/><path d="m337.277 154.276h-.01c-3.93-9.4-9.99-17.92-17.89-24.81-.81-.71-1.84-1.07-2.87-1.07-.83 0-1.68.24-2.41.73l-68.583 45.587.003.003 28.786 30.439-97.856 15.471v-.003l-35.9 23.863c-1.33.88-2.78 1.57-4.31 2.06l-113.41 35.86 21.797 57.53h13.87v-4.724-15.04c0-10.61 6.88-19.99 16.99-23.19l113.41-35.86c1.53-.49 2.98-1.18 4.31-2.06l146.646-97.477c-.72-2.485-1.576-4.926-2.573-7.309z" fill="#3c87d0"/><path d="m342.217 186.816c-.01.14-.03.28-.04.42l-.04.36-19.41 152.34h-60.57l-6.73-8.43-77.11-108.06-1.87-2.82 69.07-45.91 34.54-2.76c20.13-1.61 40.28 2.75 57.94 12.53z" fill="#b3ceec"/><g><path d="m225.576 363.351h136.301l41.334-31.844h-33.83-155.852-56.936z" fill="#e5e1e5"/></g><g><g><g><path d="m131.137 322.986v16.95h-125.3v-19.3-15.04c0-10.61 6.88-19.99 16.99-23.19l87.65 15.85c11.96 2.17 20.66 12.58 20.66 24.73z" fill="#e5e1e5"/></g></g><path d="m58.494 320.172c0-10.61 6.88-19.99 16.99-23.19l10.167-3.215-62.824-11.361c-10.11 3.2-16.99 12.58-16.99 23.19v15.04 19.3h40.313 12.343v-4.724-15.04z" fill="#d7d0d6"/><path d="m387.336 331.507h-17.956-17.328c-2.4 4.363-4.242 9.072-5.434 14.032-.789 3.286-3.757 5.582-7.136 5.582h-92.842c-3.253 0-6.069-2.152-7.051-5.254-1.635-5.162-4.02-9.992-7.033-14.361h-19.028-30.443-26.493l68.983 31.844h16.48 103.01 16.811l41.334-31.844h-15.874z" fill="#d7d0d6"/><path d="m40.339 362.655-33.634-7.151c-3.91-.831-6.705-4.283-6.705-8.28v-16.878c0-5.976 5.349-10.532 11.248-9.581 0 0 14.184 2.225 14.923 2.225h161.735c21.654 0 39.208 17.554 39.208 39.208 0 2.639-2.168 4.764-4.807 4.71l-176.27-3.595c-1.915-.039-3.823-.259-5.698-.658z" fill="#efedef"/><g><path d="m131.137 269.224c-2.984 0-5.807-1.794-6.974-4.737l-7.748-19.536c-1.527-3.85.356-8.209 4.207-9.736 3.848-1.526 8.21.357 9.736 4.207l7.748 19.536c1.527 3.85-.356 8.209-4.207 9.736-.906.36-1.842.53-2.762.53z" fill="#e5e1e5"/></g><g><path d="m160.852 256.243c-2.448 0-4.848-1.197-6.287-3.4l-11.868-18.173c-2.265-3.468-1.289-8.116 2.179-10.381 3.469-2.264 8.115-1.289 10.381 2.179l11.868 18.173c2.265 3.468 1.289 8.116-2.179 10.381-1.265.826-2.687 1.221-4.094 1.221z" fill="#e5e1e5"/></g><path d="m318.063 176.067c-12.24-3.715-25.125-5.141-38.006-4.111l-34.54 2.76-69.07 45.91 1.87 2.82 22.028 30.869z" fill="#98bce5"/><g><path d="m211.534 221.751c-2.276 0-4.524-1.032-5.998-2.99l-13.693-18.191c-2.491-3.309-1.828-8.011 1.482-10.502 3.309-2.492 8.012-1.828 10.502 1.482l13.693 18.191c2.491 3.309 1.828 8.011-1.482 10.502-1.35 1.017-2.934 1.508-4.504 1.508z" fill="#e5e1e5"/></g><g><path d="m242.507 203.56c-2.271 0-4.514-1.027-5.988-2.978l-15.663-20.717c-2.498-3.304-1.845-8.007 1.459-10.505 3.304-2.499 8.008-1.844 10.505 1.459l15.663 20.717c2.498 3.304 1.845 8.007-1.459 10.505-1.353 1.024-2.942 1.519-4.517 1.519z" fill="#e5e1e5"/></g><path d="m482.61 368.72h-116.796c-3.186 0-5.768-2.582-5.768-5.768v-4.129c0-23.124 18.746-41.87 41.87-41.87h80.695c8.011 0 14.506 6.495 14.506 14.506v22.755c-.001 8.012-6.495 14.506-14.507 14.506z" fill="#efedef"/></g></g></svg>