<?xml version="1.0" encoding="iso-8859-1"?>
<!-- Generator: Adobe Illustrator 19.0.0, SVG Export Plug-In . SVG Version: 6.00 Build 0)  -->
<svg version="1.1" id="Capa_1" xmlns="http://www.w3.org/2000/svg" xmlns:xlink="http://www.w3.org/1999/xlink" x="0px" y="0px"
	 viewBox="0 0 512 512" style="enable-background:new 0 0 512 512;" xml:space="preserve">
<path id="SVGCleanerId_0" style="fill:#E883AB;" d="M332.861,202.874l72.083,217.83c9.449,28.553-7.623,59.063-36.9,65.947l0,0
	c-73.691,17.329-150.397,17.329-224.087,0l0,0c-29.277-6.885-46.348-37.395-36.9-65.947l72.083-217.83L332.861,202.874
	L332.861,202.874z"/>
<g>
	<path id="SVGCleanerId_0_1_" style="fill:#E883AB;" d="M332.861,202.874l72.083,217.83c9.449,28.553-7.623,59.063-36.9,65.947l0,0
		c-73.691,17.329-150.397,17.329-224.087,0l0,0c-29.277-6.885-46.348-37.395-36.9-65.947l72.083-217.83L332.861,202.874
		L332.861,202.874z"/>
</g>
<path style="fill:#E883AB;" d="M322.008,0h-17.536c-7.598,0-14.107,5.438-15.458,12.915l-4.208,23.286
	C282.288,50.133,270.159,60.267,256,60.267l0,0c-14.159,0-26.288-10.134-28.806-24.066l-4.208-23.286
	C221.635,5.438,215.126,0,207.528,0h-17.536c-6.476,0-12.219,4.158-14.241,10.31l0,0c-17.105,52.044-18.811,107.921-4.913,160.912
	l8.302,31.653h153.722l8.302-31.653c13.898-52.99,12.192-108.868-4.913-160.912l0,0C334.228,4.158,328.484,0,322.008,0z"/>
<path style="opacity:0.3;fill:#FFFFFF;enable-background:new    ;" d="M322.008,0h-17.536c-7.598,0-14.107,5.438-15.458,12.915
	l-4.208,23.286C282.288,50.133,270.159,60.267,256,60.267l0,0c-14.159,0-26.288-10.134-28.806-24.066l-4.208-23.286
	C221.635,5.438,215.126,0,207.528,0h-17.536c-6.476,0-12.219,4.158-14.241,10.31l0,0c-17.105,52.044-18.811,107.921-4.913,160.912
	l8.302,31.653h153.722l8.302-31.653c13.898-52.99,12.192-108.868-4.913-160.912l0,0C334.228,4.158,328.484,0,322.008,0z"/>
<g style="opacity:0.1;">
	<path d="M225.6,217.96c-3.331,0-6.372-2.235-7.252-5.608l-9.294-35.627c-1.046-4.009,1.355-8.105,5.363-9.15
		c4.011-1.054,8.105,1.355,9.15,5.363l9.294,35.627c1.046,4.009-1.355,8.105-5.363,9.15
		C226.863,217.881,226.226,217.96,225.6,217.96z"/>
	<path d="M290.829,220.094c-0.445,0-0.897-0.039-1.351-0.122c-4.075-0.741-6.778-4.645-6.037-8.721l5.854-32.201
		c0.74-4.075,4.643-6.787,8.721-6.037c4.075,0.741,6.778,4.646,6.037,8.721l-5.854,32.201
		C297.541,217.556,294.384,220.094,290.829,220.094z"/>
</g>
<path style="fill:#E883AB;" d="M222.986,12.915C221.635,5.438,215.126,0,207.528,0h-17.536c-6.476,0-12.219,4.158-14.241,10.31
	c-3.951,12.02-7.069,24.246-9.374,36.592h65.047c-2.056-3.174-3.522-6.788-4.229-10.702L222.986,12.915z M336.249,10.31
	C334.228,4.158,328.484,0,322.008,0h-17.536c-7.598,0-14.107,5.438-15.458,12.915l-4.208,23.286
	c-0.707,3.914-2.173,7.528-4.229,10.702h65.047C343.318,34.556,340.2,22.33,336.249,10.31z"/>
<polygon style="fill:#F3DE6A;" points="332.861,202.874 179.139,202.874 160.907,257.971 351.093,257.971 "/>
<g style="opacity:0.05;">
	<path d="M155.003,436.209c-0.702,0-1.416-0.1-2.125-0.309c-3.973-1.172-6.243-5.343-5.071-9.315l28.512-96.662
		c1.172-3.973,5.335-6.247,9.315-5.071c3.973,1.172,6.243,5.343,5.071,9.315l-28.512,96.662
		C161.231,434.094,158.242,436.209,155.003,436.209z"/>
	<path d="M345.621,385.169c-3.246,0-6.238-2.123-7.195-5.396l-21.482-73.441c-1.163-3.976,1.117-8.141,5.093-9.304
		c3.977-1.168,8.142,1.117,9.304,5.093l21.483,73.441c1.163,3.976-1.117,8.141-5.093,9.304
		C347.027,385.071,346.317,385.169,345.621,385.169z"/>
</g>
<path style="opacity:0.1;enable-background:new    ;" d="M338.842,467.5L284.03,298.896h-56.06L173.159,467.5
	c-2.214,6.809-1.743,13.856,0.832,19.993c-1.229-0.279-2.458-0.553-3.686-0.842l0,0c-29.277-6.885-46.348-37.395-36.9-65.947
	l72.082-217.83l-8.302-31.653c-13.898-52.99-12.192-108.868,4.913-160.911c1.552-4.722,5.301-8.261,9.886-9.655l0,0
	C210.566,0.235,209.071,0,207.528,0h-17.536c-6.476,0-12.219,4.158-14.241,10.31l0,0c-17.105,52.044-18.811,107.921-4.913,160.911
	l8.302,31.653l-72.083,217.83c-9.448,28.553,7.623,59.063,36.9,65.947l0,0c62.659,14.735,127.498,16.932,190.81,6.609
	C339.98,486.064,341.79,476.57,338.842,467.5z"/>
<path style="fill:#E883AB;" d="M284.03,298.896h-56.06l-37.24,184.535c-1.266,6.272,1.879,12.604,7.641,15.386l0,0
	c36.409,17.578,78.85,17.578,115.259,0l0,0c5.762-2.782,8.906-9.114,7.641-15.386L284.03,298.896z"/>
<g>
</g>
<g>
</g>
<g>
</g>
<g>
</g>
<g>
</g>
<g>
</g>
<g>
</g>
<g>
</g>
<g>
</g>
<g>
</g>
<g>
</g>
<g>
</g>
<g>
</g>
<g>
</g>
<g>
</g>
</svg>
